<?xml version="1.0" encoding="utf-8"?>
<!-- Generator: Adobe Illustrator 17.0.2, SVG Export Plug-In . SVG Version: 6.00 Build 0)  -->
<!DOCTYPE svg PUBLIC "-//W3C//DTD SVG 1.1//EN" "http://www.w3.org/Graphics/SVG/1.1/DTD/svg11.dtd">
<svg version="1.1" id="Layer_1" xmlns="http://www.w3.org/2000/svg" xmlns:xlink="http://www.w3.org/1999/xlink" x="0px" y="0px"
	 width="192px" height="192px" viewBox="0 0 192 192" enable-background="new 0 0 192 192" xml:space="preserve">
<g>
	<rect x="3" y="3" fill="none" stroke="#009444" stroke-width="6" stroke-miterlimit="10" width="185.95" height="186.5"/>
	<polygon fill="#009444" points="131.207,104.647 100.95,123.118 103.156,125.483 100.95,123.118 98.621,124.54 100.95,123.118 
		57.227,76.266 20.638,107.018 20.638,168.949 168.793,168.949 168.793,134.479 	"/>
	<path fill="#414042" stroke="#000000" stroke-miterlimit="10" d="M126.419,92.115c0.105-8.057,0.167-21.023-0.341-28.968
		c-0.731-11.411-2.564-22.494-13.298-30.282C102.723,25.567,85.308,22,71.415,39.754c-2.696,3.445-5.498,10.784-5.498,16.176v36.185
		H47.649v70.008h94.132V92.115H126.419z M79.157,58.468c0.793-6.748,6.918-12.123,11.913-13.741
		c5.704-1.848,12.027-0.374,16.473,3.179c3.13,2.501,5.236,5.928,5.772,23.003l-0.71,21.207H78.272
		C78.357,81.108,78.582,63.367,79.157,58.468z"/>
	<path fill="#FFFFFF" stroke="#000000" stroke-miterlimit="10" d="M95.811,105.691c-6.651,0-12.043,6.169-12.043,13.779
		c0,6.138,3.531,11.277,8.378,13.06v12.252h7.33V132.53c4.847-1.783,8.378-6.922,8.378-13.06
		C107.854,111.86,102.462,105.691,95.811,105.691z"/>
</g>
</svg>
